{"title":"AvP2 (Theatrical)*2004*[mini-HD.1080p.AC3.BluRay.x264-LEON 345]","uid":9902602,"size":4121685558,"categoryP":"video","categoryS":"hd___movies","magnet":"?xt=urn:btih:d4e240b590e3f0dfa7a98a713cdf6eb37e893d63&amp;dn=AvP2+%28Theatrical%29%2A2004%2A%5Bmini-HD.1080p.AC3.BluRay.x264-LEON+345%5D&amp;tr=udp%3A%2F%2Ftracker.openbittorrent.com%3A80&amp;tr=udp%3A%2F%2Fopen.demonii.com%3A1337&amp;tr=udp%3A%2F%2Ftracker.coppersurfer.tk%3A6969&amp;tr=udp%3A%2F%2Fexodus.desync.com%3A6969","seeders":1,"leechers":1,"uploader":"Leon345","files":-1,"time":1396795060,"description":"Alien vs. Predator - Requiem*2007* PL (Theatrical Cut) Leon 345\n ===================================================\n\n IMDB: http://www.imdb.com/title/tt0758730/\n\n produkcja: USA\n gatunek: Akcja, Sci-Fi\n data premiery: 2007-12-28 (Polska), 2007-12-25 (Åšwiat)\n reÅ¼yseria: Colin Strause, Greg Strause\n scenariusz: Shane Salerno\n zdjÄ™cia: Daniel Pearl\n muzyka: Brian Tyler\n obsada: Sanaa Lathan, Lance Henriksen, Raoul Bova \n\n Niewielkie, zapomniane przez Boga i ludzi miasteczko staje siÄ™ arenÄ… walki pomiÄ™dzy Obcymi i Predatorami. Ludzie, chcÄ…c przetrwaÄ‡ tÄ™ wojnÄ™, muszÄ… zapomnieÄ‡ o dawnych animozjach i zjednoczyÄ‡ swoje siÅ‚y w walce z kosmicznymi drapieÅ¼nikami.\n\n General\n\n Format : Matroska\n Format version : Version 2\n File size : 3.84 GiB\n Duration : 1h 33mn\n Overall bit rate mode : Variable\n Overall bit rate : 5 862 Kbps\n Encoded date : UTC 2014-04-05 14:30:54\n Writing application : mkvmerge v5.7.0 ('The Whirlwind') built on Jul 8 2012 20:08:51\n Writing library : libebml v1.2.3 + libmatroska v1.3.0\n\n Video\n ID : 1\n Format : AVC\n Format/Info : Advanced Video Codec\n Format profile : &lt;a class=&quot;__cf_email__&quot; href=&quot;/cdn-cgi/l/email-protection&quot; data-cfemail=&quot;a2eacbc5cae2ee968c92&quot;&gt;[email&amp;#160;protected]&lt;/a&gt;&lt;script cf-hash='f9e31' type=&quot;text/javascript&quot;&gt;\n/* &lt;![CDATA[ */!function(){try{var t=&quot;currentScript&quot;in document?document.currentScript:function(){for(var t=document.getElementsByTagName(&quot;script&quot;),e=t.length;e--;)if(t[e].getAttribute(&quot;cf-hash&quot;))return t[e]}();if(t&amp;&amp;t.previousSibling){var e,r,n,i,c=t.previousSibling,a=c.getAttribute(&quot;data-cfemail&quot;);if(a){for(e=&quot;&quot;,r=parseInt(a.substr(0,2),16),n=2;a.length-n;n+=2)i=parseInt(a.substr(n,2),16)^r,e+=String.fromCharCode(i);e=document.createTextNode(e),c.parentNode.replaceChild(e,c)}}}catch(u){}}();/* ]]&gt; */&lt;/script&gt;\n Format settings, CABAC : Yes\n Format settings, ReFrames : 4 frames\n Codec ID : V_MPEG4/ISO/AVC\n Duration : 1h 33mn\n Bit rate mode : Variable\n Bit rate : 4 769 Kbps\n Maximum bit rate : 15.0 Mbps\n Width : 1 920 pixels\n Height : 1 080 pixels\n Display aspect ratio : 16:9\n Frame rate mode : Constant\n Frame rate : 23.976 fps\n Color space : YUV\n Chroma subsampling : 4:2:0\n Bit depth : 8 bits\n Scan type : Progressive\n Bits/(Pixel*Frame) : 0.096\n Stream size : 3.05 GiB (79%)\n Title : Rip by Leon 345 encoding 2 pass\n Writing library : x264 core 132 r2309 3b1f1f7\n Default : Yes\n Forced : No\n\n Audio #1\n ID : 2\n Format : AC-3\n Format/Info : Audio Coding 3\n Mode extension : CM (complete main)\n Format settings, Endianness : Big\n Codec ID : A_AC3\n Duration : 1h 33mn\n Bit rate mode : Constant\n Bit rate : 448 Kbps\n Channel(s) : 6 channels\n Channel positions : Front: L C R, Side: L R, LFE\n Sampling rate : 48.0 KHz\n Bit depth : 16 bits\n Compression mode : Lossy\n Stream size : 300 MiB (8%)\n Title : AC3 5.1 Lektor PL\n Language : Polish\n Default : Yes\n Forced : No\n\n Audio #2\n ID : 3\n Format : AC-3\n Format/Info : Audio Coding 3\n Mode extension : CM (complete main)\n Format settings, Endianness : Big\n Codec ID : A_AC3\n Duration : 1h 33mn\n Bit rate mode : Constant\n Bit rate : 640 Kbps\n Channel(s) : 6 channels\n Channel positions : Front: L C R, Side: L R, LFE\n Sampling rate : 48.0 KHz\n Bit depth : 16 bits\n Compression mode : Lossy\n Stream size : 429 MiB (11%)\n Title : AC3 5.1 Orginal\n Language : English\n Default : No\n Forced : No\n\n Text #1\n ID : 4\n Format : PGS\n Muxing mode : zlib\n Codec ID : S_HDMV/PGS\n Codec ID/Info : The same subtitle format used on BDs/HD-DVDs\n Language : Polish\n Default : No\n Forced : No\n\n Text #2\n ID : 5\n Format : PGS\n Muxing mode : zlib\n Codec ID : S_HDMV/PGS\n Codec ID/Info : The same subtitle format used on BDs/HD-DVDs\n Language : English\n Default : No\n Forced : No\n\n Source [thx]:\n A/V- Aliens vs. Predator Requiem (2007) Blu-ray CEE 1080p AVC DTS 5.1","torrent":{"xt":"urn:btih:d4e240b590e3f0dfa7a98a713cdf6eb37e893d63","amp;dn":"AvP2+%28Theatrical%29%2A2004%2A%5Bmini-HD.1080p.AC3.BluRay.x264-LEON+345%5D","amp;tr":["udp%3A%2F%2Ftracker.openbittorrent.com%3A80","udp%3A%2F%2Fopen.demonii.com%3A1337","udp%3A%2F%2Ftracker.coppersurfer.tk%3A6969","udp%3A%2F%2Fexodus.desync.com%3A6969"],"infoHash":"d4e240b590e3f0dfa7a98a713cdf6eb37e893d63","infoHashBuffer":{"type":"Buffer","data":[212,226,64,181,144,227,240,223,167,169,138,113,60,223,110,179,126,137,61,99]},"announce":[],"urlList":[]}}